<?xml version="1.0" encoding="UTF-8" standalone="no"?>
<svg
   xmlns:dc="http://purl.org/dc/elements/1.1/"
   xmlns:cc="http://creativecommons.org/ns#"
   xmlns:rdf="http://www.w3.org/1999/02/22-rdf-syntax-ns#"
   xmlns:svg="http://www.w3.org/2000/svg"
   xmlns="http://www.w3.org/2000/svg"
   xmlns:xlink="http://www.w3.org/1999/xlink"
   xmlns:sodipodi="http://sodipodi.sourceforge.net/DTD/sodipodi-0.dtd"
   xmlns:inkscape="http://www.inkscape.org/namespaces/inkscape"
   version="1.1"
   id="owcs"
   x="0px"
   y="0px"
   width="467.99884"
   height="148.88809"
   viewBox="0 0 467.99884 148.88809"
   enable-background="new 0 0 475 156"
   xml:space="preserve"
   sodipodi:docname="owcs.svg"
   inkscape:version="0.92.2 (5c3e80d, 2017-08-06)"
   inkscape:export-filename="C:\Users\AYoon\Downloads\documentIndex_files\owcs-reverse.png"
   inkscape:export-xdpi="38.880001"
   inkscape:export-ydpi="38.880001"><metadata
     id="metadata4015"><rdf:RDF><cc:Work
         rdf:about=""><dc:format>image/svg+xml</dc:format><dc:type
           rdf:resource="http://purl.org/dc/dcmitype/StillImage" /><dc:title></dc:title></cc:Work></rdf:RDF></metadata><defs
     id="defs4013" /><sodipodi:namedview
     pagecolor="#ffffff"
     bordercolor="#666666"
     borderopacity="1"
     objecttolerance="10"
     gridtolerance="10"
     guidetolerance="10"
     inkscape:pageopacity="0"
     inkscape:pageshadow="2"
     inkscape:window-width="1920"
     inkscape:window-height="1001"
     id="namedview4011"
     showgrid="false"
     inkscape:zoom="2.8547368"
     inkscape:cx="251.85576"
     inkscape:cy="80.821563"
     inkscape:window-x="-9"
     inkscape:window-y="-9"
     inkscape:window-maximized="1"
     inkscape:current-layer="g4008"
     fit-margin-top="0"
     fit-margin-left="0"
     fit-margin-right="0"
     fit-margin-bottom="0"
     inkscape:pagecheckerboard="true" /><g
     id="g4008"
     transform="translate(-3.4371602,-4.5209046)"><defs
       id="defs3927"><rect
         id="SVGID_1_"
         x="-68.5"
         y="-119.5"
         width="612"
         height="792" /></defs><clipPath
       id="SVGID_2_"><use
         xlink:href="#SVGID_1_"
         overflow="visible"
         id="use3929"
         style="overflow:visible"
         x="0"
         y="0"
         width="100%"
         height="100%" /></clipPath><path
       clip-path="url(#SVGID_2_)"
       d="m 242.048,100.467 c -7.753,15.149 -7.753,15.149 -19.838,15.149 h -10.82 l -7.936,-89.993 -38.234,74.844 c -7.755,15.149 -7.213,15.149 -22.725,15.149 h -7.936 L 124.461,4.521 c 20.017,0 18.936,-0.179 19.837,14.97 l 5.231,75.746 46.532,-90.716 c 22.722,0 22.543,0 23.803,14.97 l 6.675,75.746 37.875,-77.19 C 271.085,4.521 271.085,4.521 291.465,4.521 Z"
       id="path3932"
       style="fill:#ffffff;fill-opacity:0.98999999"
       inkscape:connector-curvature="0" /><path
       clip-path="url(#SVGID_2_)"
       d="m 361.793,20.393 h -18.938 c -31.561,0 -31.381,-1.081 -40.219,39.858 -4.688,22.722 -3.064,39.858 23.085,39.858 h 18.034 c 15.871,0 15.871,0 12.627,15.867 h -33.908 c -41.299,0 -45.627,-25.427 -39.315,-55.725 6.495,-30.298 21.823,-55.729 62.942,-55.729 h 33.726 c -3.248,15.871 -3.248,15.871 -18.034,15.871"
       id="path3934"
       style="fill:#ffffff;fill-opacity:0.98999999"
       inkscape:connector-curvature="0" /><path
       clip-path="url(#SVGID_2_)"
       d="m 453.403,20.572 h -23.447 c -24.889,0 -24.525,-1.081 -28.133,16.051 -5.413,23.807 65.647,6.132 56.99,46.529 -3.606,15.871 -16.953,32.644 -51.763,32.644 h -37.513 c 3.787,-16.41 3.787,-16.41 18.939,-16.41 h 21.641 c 26.512,0 26.332,1.081 29.576,-14.431 C 445.826,56.46 375.13,76.66 382.704,37.525 386.67,17.508 402.541,4.521 434.103,4.521 h 37.333 c -3.426,16.051 -3.426,16.051 -18.033,16.051"
       id="path3936"
       style="fill:#ffffff;fill-opacity:0.98999999"
       inkscape:connector-curvature="0" /><path
       clip-path="url(#SVGID_2_)"
       d="m 112.484,23.012 -0.002,0.001 C 105.276,16.203 96.22,10.995 86.339,8.055 81.396,6.575 76.258,5.674 71.09,5.287 65.917,4.952 60.708,5.148 55.61,5.911 45.412,7.449 35.702,11.271 27.6,16.905 19.51,22.54 12.981,29.914 8.835,38.243 4.671,46.562 2.89,55.757 3.583,64.77 c 0.71,9.014 3.907,17.824 9.254,25.406 5.346,7.58 12.738,13.939 21.367,18.348 8.623,4.419 18.432,6.836 28.275,7.093 C 52.65,115.061 43.025,112.352 34.716,107.752 26.401,103.162 19.44,96.726 14.551,89.244 9.662,81.758 6.937,73.218 6.587,64.628 6.254,56.035 8.283,47.417 12.469,39.762 c 4.169,-7.664 10.496,-14.304 18.14,-19.267 7.651,-4.953 16.629,-8.148 25.905,-9.259 4.637,-0.549 9.339,-0.579 13.969,-0.139 4.624,0.491 9.183,1.436 13.526,2.886 8.701,2.89 16.489,7.734 22.585,13.905 l 0.013,-0.01 c 4.596,4.339 9.256,-1.558 9.256,-1.558 z"
       id="path3938"
       style="fill:#ffffff;fill-opacity:0.98999999"
       inkscape:connector-curvature="0" /><path
       clip-path="url(#SVGID_2_)"
       d="M 100.777,50.242 C 98.129,44.007 93.383,38.562 87.37,34.751 81.365,30.918 74.103,28.772 66.814,28.603 c -7.291,-0.187 -14.593,1.599 -20.696,5.061 -6.112,3.441 -11.019,8.505 -13.922,14.355 -2.92,5.842 -3.833,12.428 -2.629,18.668 1.173,6.247 4.476,12.112 9.3,16.653 -4.64,-4.694 -7.654,-10.606 -8.557,-16.755 -0.932,-6.144 0.228,-12.492 3.249,-17.996 3.003,-5.512 7.866,-10.156 13.73,-13.199 5.852,-3.061 12.698,-4.483 19.391,-4.097 6.695,0.373 13.206,2.552 18.46,6.169 5.271,3.601 9.292,8.605 11.394,14.157 2.126,5.549 2.348,11.638 0.67,17.245 -1.653,5.617 -5.202,10.71 -10.029,14.498 l 0.003,0.003 c -3.634,3.089 1.311,6.221 1.311,6.221 l 2.747,-2.249 0.028,-0.023 -10e-4,-0.002 c 5.505,-4.651 9.41,-10.774 11.054,-17.328 1.681,-6.558 1.126,-13.518 -1.54,-19.742"
       id="path3940"
       style="fill:#ffffff;fill-opacity:1"
       inkscape:connector-curvature="0" /><path
       clip-path="url(#SVGID_2_)"
       d="M 83.731,55.172 C 81.542,50.11 76.443,46.273 70.67,45.205 c -5.756,-1.15 -11.978,0.474 -16.055,4.077 4.314,-3.384 10.468,-4.576 15.817,-3.205 5.377,1.293 9.77,5.11 11.414,9.707 1.718,4.584 0.656,9.816 -2.61,13.47 -3.215,3.715 -8.478,5.75 -13.535,5.359 L 65.7,74.63 c -3.316,-0.08 -2.655,3.465 -2.655,3.465 l 2.497,0.109 V 78.2 c 6.381,0.146 12.62,-2.759 16.117,-7.349 3.594,-4.561 4.334,-10.65 2.072,-15.679"
       id="path3942"
       style="fill:#ffffff;fill-opacity:1"
       inkscape:connector-curvature="0" /><path
       clip-path="url(#SVGID_2_)"
       d="M 115.402,55.1 C 113.747,46.235 109.066,37.909 102.232,31.459 95.415,24.992 86.463,20.414 76.862,18.483 67.274,16.524 57.099,17.167 48.006,20.296 c -9.101,3.105 -17.07,8.66 -22.63,15.709 -5.597,7.03 -8.731,15.53 -8.974,24.068 0.578,-8.528 4.033,-16.828 9.782,-23.536 5.714,-6.73 13.667,-11.852 22.507,-14.554 8.831,-2.726 18.523,-3.009 27.457,-0.885 8.943,2.097 17.082,6.633 23.124,12.784 6.06,6.138 9.997,13.863 11.173,21.891 1.208,8.027 -0.301,16.33 -4.254,23.507 -3.929,7.194 -10.276,13.266 -17.941,17.232 -7.652,3.998 -16.571,5.851 -25.318,5.341 l -0.001,0.017 c -6.645,-0.165 -5.306,6.927 -5.306,6.927 l 4.95,0.207 -0.001,0.024 c 10.313,0.279 20.673,-2.248 29.317,-7.144 8.669,-4.861 15.62,-12.035 19.749,-20.321 4.158,-8.281 5.449,-17.611 3.762,-26.463"
       id="path3944"
       inkscape:connector-curvature="0"
       style="fill:#6fccdd" /><path
       clip-path="url(#SVGID_2_)"
       d="m 91.864,58.156 c -0.911,-4.684 -3.417,-9.063 -7.047,-12.438 3.446,3.529 5.663,7.955 6.303,12.539 0.664,4.582 -0.235,9.298 -2.507,13.37 -2.257,4.078 -5.888,7.497 -10.24,9.722 C 74.029,83.587 68.968,84.605 64.04,84.29 59.109,83.986 54.336,82.353 50.502,79.676 46.656,77.01 43.741,73.325 42.238,69.26 40.717,65.196 40.593,60.754 41.847,56.682 43.08,52.613 45.679,48.946 49.186,46.224 l 0.01,0.01 c 3.713,-3.099 -1.27,-6.272 -1.27,-6.272 l -2.792,2.273 0.005,0.005 c -4.208,3.587 -7.176,8.299 -8.405,13.322 -1.257,5.023 -0.8,10.336 1.261,15.074 2.049,4.749 5.689,8.874 10.278,11.751 4.584,2.893 10.108,4.492 15.633,4.594 5.526,0.114 11.043,-1.267 15.637,-3.906 4.602,-2.623 8.276,-6.461 10.433,-10.878 2.171,-4.41 2.822,-9.364 1.888,-14.041"
       id="path3946"
       inkscape:connector-curvature="0"
       style="fill:#6fccdd" /><polygon
       clip-path="url(#SVGID_2_)"
       points="108.296,148.245 106.398,148.245 101.69,130.021 103.412,130.021 107.335,145.815 107.386,145.815 111.613,130.021 113.537,130.021 117.687,145.815 117.738,145.815 121.712,130.021 123.483,130.021 118.7,148.245 116.801,148.245 112.575,132.147 112.524,132.147 "
       id="polygon3948"
       style="fill:#ffffff;fill-opacity:0.98999999" /><path
       clip-path="url(#SVGID_2_)"
       d="m 130.874,148.6 c -0.843,-0.017 -1.632,-0.169 -2.366,-0.456 -0.734,-0.287 -1.375,-0.717 -1.924,-1.291 -0.548,-0.573 -0.983,-1.291 -1.303,-2.152 -0.321,-0.86 -0.481,-1.864 -0.481,-3.011 0,-0.962 0.127,-1.861 0.38,-2.696 0.253,-0.836 0.632,-1.565 1.138,-2.189 0.507,-0.624 1.139,-1.118 1.899,-1.481 0.759,-0.363 1.645,-0.544 2.657,-0.544 1.029,0 1.924,0.181 2.684,0.544 0.758,0.363 1.392,0.852 1.897,1.468 0.507,0.616 0.882,1.346 1.127,2.189 0.245,0.845 0.367,1.747 0.367,2.709 0,1.046 -0.143,1.991 -0.43,2.834 -0.287,0.845 -0.696,1.57 -1.227,2.177 -0.531,0.608 -1.173,1.075 -1.924,1.405 -0.751,0.329 -1.582,0.494 -2.494,0.494 m 4.456,-6.911 c 0,-0.777 -0.085,-1.502 -0.253,-2.177 -0.169,-0.675 -0.431,-1.261 -0.785,-1.76 -0.355,-0.497 -0.811,-0.889 -1.367,-1.177 -0.557,-0.286 -1.24,-0.429 -2.051,-0.429 -0.793,0 -1.472,0.155 -2.037,0.467 -0.565,0.313 -1.026,0.726 -1.38,1.242 -0.354,0.514 -0.616,1.105 -0.783,1.771 -0.169,0.666 -0.254,1.354 -0.254,2.063 0,0.809 0.097,1.556 0.291,2.24 0.194,0.683 0.476,1.27 0.848,1.759 0.371,0.489 0.835,0.869 1.392,1.139 0.557,0.27 1.197,0.405 1.923,0.405 0.793,0 1.472,-0.156 2.038,-0.469 0.565,-0.312 1.025,-0.729 1.38,-1.252 0.354,-0.523 0.616,-1.114 0.785,-1.773 0.168,-0.657 0.253,-1.341 0.253,-2.049"
       id="path3950"
       style="fill:#ffffff;fill-opacity:0.98999999"
       inkscape:connector-curvature="0" /><path
       clip-path="url(#SVGID_2_)"
       d="m 141.328,148.245 h -1.519 v -13.111 h 1.519 v 2.456 h 0.051 c 0.421,-1.047 0.966,-1.777 1.632,-2.19 0.667,-0.414 1.548,-0.62 2.645,-0.62 v 1.645 c -0.86,-0.017 -1.569,0.118 -2.126,0.404 -0.557,0.288 -1,0.676 -1.328,1.166 -0.33,0.488 -0.558,1.066 -0.685,1.732 -0.126,0.668 -0.189,1.363 -0.189,2.089 z"
       id="path3952"
       style="fill:#ffffff;fill-opacity:0.98999999"
       inkscape:connector-curvature="0" /><polygon
       clip-path="url(#SVGID_2_)"
       points="156.971,148.245 152.06,140.931 149.58,143.284 149.58,148.245 148.061,148.245 148.061,130.021 149.58,130.021 149.58,141.36 156.008,135.134 158.083,135.134 153.173,139.867 158.667,148.245 "
       id="polygon3954"
       style="fill:#ffffff;fill-opacity:0.98999999" /><path
       clip-path="url(#SVGID_2_)"
       d="m 161.753,142.044 c 0,0.708 0.093,1.379 0.279,2.012 0.185,0.633 0.459,1.181 0.822,1.645 0.363,0.464 0.824,0.835 1.38,1.113 0.557,0.279 1.198,0.419 1.924,0.419 0.995,0 1.847,-0.262 2.556,-0.786 0.708,-0.523 1.181,-1.265 1.417,-2.227 h 1.696 c -0.185,0.625 -0.43,1.203 -0.734,1.734 -0.304,0.532 -0.683,0.996 -1.139,1.393 -0.456,0.396 -0.996,0.704 -1.619,0.924 -0.626,0.218 -1.351,0.328 -2.177,0.328 -1.047,0 -1.949,-0.177 -2.709,-0.531 -0.759,-0.354 -1.383,-0.84 -1.872,-1.456 -0.491,-0.615 -0.853,-1.342 -1.089,-2.177 -0.237,-0.835 -0.354,-1.733 -0.354,-2.695 0,-0.962 0.138,-1.864 0.417,-2.709 0.278,-0.843 0.675,-1.582 1.189,-2.214 0.515,-0.632 1.143,-1.131 1.886,-1.494 0.743,-0.362 1.586,-0.544 2.532,-0.544 1.805,0 3.222,0.621 4.252,1.861 1.029,1.24 1.535,3.041 1.518,5.404 z m 8.556,-1.266 c 0,-0.641 -0.088,-1.244 -0.266,-1.81 -0.177,-0.565 -0.439,-1.054 -0.783,-1.468 -0.347,-0.413 -0.781,-0.742 -1.305,-0.987 -0.522,-0.244 -1.122,-0.367 -1.796,-0.367 -0.675,0 -1.27,0.127 -1.786,0.38 -0.514,0.253 -0.952,0.59 -1.315,1.012 -0.363,0.422 -0.655,0.911 -0.873,1.469 -0.22,0.556 -0.363,1.147 -0.431,1.771 z"
       id="path3956"
       style="fill:#ffffff;fill-opacity:0.98999999"
       inkscape:connector-curvature="0" /><path
       clip-path="url(#SVGID_2_)"
       d="m 176.485,148.245 h -1.519 v -13.111 h 1.519 v 2.456 h 0.051 c 0.421,-1.047 0.966,-1.777 1.632,-2.19 0.667,-0.414 1.548,-0.62 2.645,-0.62 v 1.645 c -0.86,-0.017 -1.569,0.118 -2.126,0.404 -0.557,0.288 -1,0.676 -1.328,1.166 -0.33,0.488 -0.558,1.066 -0.685,1.732 -0.126,0.668 -0.189,1.363 -0.189,2.089 z"
       id="path3958"
       style="fill:#ffffff;fill-opacity:0.98999999"
       inkscape:connector-curvature="0" /><path
       clip-path="url(#SVGID_2_)"
       d="m 184.205,144.145 c 0.236,1.131 0.662,1.928 1.278,2.392 0.616,0.464 1.498,0.696 2.645,0.696 0.557,0 1.038,-0.067 1.443,-0.203 0.405,-0.135 0.738,-0.316 0.999,-0.544 0.261,-0.228 0.461,-0.485 0.595,-0.773 0.135,-0.286 0.203,-0.589 0.203,-0.91 0,-0.641 -0.207,-1.118 -0.62,-1.43 -0.414,-0.312 -0.933,-0.558 -1.557,-0.735 -0.624,-0.177 -1.3,-0.328 -2.025,-0.455 -0.726,-0.127 -1.4,-0.316 -2.024,-0.57 -0.625,-0.253 -1.144,-0.615 -1.557,-1.088 -0.414,-0.472 -0.621,-1.139 -0.621,-1.999 0,-1.097 0.401,-1.995 1.203,-2.696 0.801,-0.7 1.936,-1.05 3.404,-1.05 1.417,0 2.57,0.316 3.455,0.948 0.886,0.634 1.422,1.693 1.607,3.177 h -1.544 c -0.135,-1.012 -0.519,-1.725 -1.151,-2.138 -0.632,-0.414 -1.43,-0.621 -2.392,-0.621 -0.962,0 -1.696,0.207 -2.202,0.621 -0.506,0.413 -0.76,0.958 -0.76,1.632 0,0.591 0.207,1.042 0.62,1.354 0.414,0.312 0.932,0.566 1.558,0.76 0.624,0.194 1.298,0.366 2.024,0.519 0.725,0.151 1.401,0.366 2.025,0.646 0.624,0.279 1.144,0.655 1.556,1.126 0.414,0.473 0.621,1.131 0.621,1.974 0,0.624 -0.136,1.178 -0.406,1.659 -0.269,0.48 -0.641,0.881 -1.113,1.202 -0.472,0.321 -1.034,0.561 -1.682,0.721 -0.65,0.16 -1.364,0.241 -2.14,0.241 -0.776,0 -1.464,-0.115 -2.063,-0.343 -0.599,-0.227 -1.109,-0.543 -1.531,-0.948 -0.423,-0.406 -0.751,-0.877 -0.987,-1.418 -0.237,-0.54 -0.372,-1.122 -0.405,-1.746 h 1.544 z"
       id="path3960"
       style="fill:#ffffff;fill-opacity:0.98999999"
       inkscape:connector-curvature="0" /><path
       clip-path="url(#SVGID_2_)"
       d="m 198.025,133.007 c 0,0.743 -0.173,1.338 -0.519,1.785 -0.346,0.447 -0.789,0.755 -1.329,0.924 v -0.937 c 0.203,-0.134 0.397,-0.319 0.582,-0.557 0.185,-0.236 0.279,-0.607 0.279,-1.113 v -0.861 h -0.861 v -2.227 h 1.848 z"
       id="path3962"
       style="fill:#ffffff;fill-opacity:0.98999999"
       inkscape:connector-curvature="0" /><path
       clip-path="url(#SVGID_2_)"
       d="m 221.792,135.311 c -0.354,-1.553 -1.012,-2.658 -1.974,-3.316 -0.962,-0.659 -2.22,-0.987 -3.772,-0.987 -1.097,0 -2.041,0.22 -2.834,0.658 -0.794,0.439 -1.447,1.029 -1.962,1.771 -0.515,0.743 -0.895,1.6 -1.139,2.57 -0.245,0.971 -0.367,1.995 -0.367,3.075 0,1.013 0.105,2.008 0.316,2.986 0.211,0.98 0.562,1.853 1.051,2.62 0.489,0.769 1.147,1.389 1.974,1.86 0.826,0.473 1.864,0.71 3.114,0.71 0.775,0 1.484,-0.127 2.125,-0.38 0.642,-0.254 1.202,-0.604 1.683,-1.05 0.481,-0.448 0.887,-0.975 1.216,-1.582 0.329,-0.608 0.577,-1.274 0.746,-2 h 1.798 c -0.204,0.878 -0.499,1.708 -0.886,2.493 -0.389,0.784 -0.9,1.472 -1.532,2.063 -0.632,0.591 -1.4,1.059 -2.304,1.405 -0.902,0.346 -1.961,0.519 -3.176,0.519 -1.401,0 -2.598,-0.258 -3.595,-0.773 -0.994,-0.514 -1.809,-1.21 -2.441,-2.087 -0.634,-0.878 -1.093,-1.894 -1.38,-3.051 -0.286,-1.156 -0.43,-2.383 -0.43,-3.682 0,-1.739 0.215,-3.216 0.645,-4.43 0.43,-1.215 1.026,-2.206 1.785,-2.974 0.759,-0.768 1.652,-1.325 2.683,-1.67 1.029,-0.346 2.151,-0.519 3.366,-0.519 0.927,0 1.792,0.122 2.595,0.367 0.801,0.244 1.509,0.612 2.126,1.101 0.615,0.489 1.121,1.093 1.519,1.809 0.395,0.718 0.67,1.549 0.821,2.494 z"
       id="path3964"
       style="fill:#ffffff;fill-opacity:0.98999999"
       inkscape:connector-curvature="0" /><path
       clip-path="url(#SVGID_2_)"
       d="m 232.119,148.6 c -0.844,-0.017 -1.632,-0.169 -2.367,-0.456 -0.733,-0.287 -1.375,-0.717 -1.924,-1.291 -0.548,-0.573 -0.983,-1.291 -1.303,-2.152 -0.321,-0.86 -0.481,-1.864 -0.481,-3.011 0,-0.962 0.127,-1.861 0.381,-2.696 0.252,-0.836 0.632,-1.565 1.137,-2.189 0.507,-0.624 1.139,-1.118 1.9,-1.481 0.758,-0.363 1.644,-0.544 2.657,-0.544 1.029,0 1.924,0.181 2.683,0.544 0.759,0.363 1.392,0.852 1.898,1.468 0.507,0.616 0.881,1.346 1.126,2.189 0.245,0.845 0.367,1.747 0.367,2.709 0,1.046 -0.144,1.991 -0.429,2.834 -0.288,0.845 -0.696,1.57 -1.228,2.177 -0.531,0.608 -1.173,1.075 -1.924,1.405 -0.75,0.329 -1.582,0.494 -2.493,0.494 m 4.455,-6.911 c 0,-0.777 -0.085,-1.502 -0.253,-2.177 -0.169,-0.675 -0.431,-1.261 -0.785,-1.76 -0.354,-0.497 -0.811,-0.889 -1.367,-1.177 -0.557,-0.286 -1.24,-0.429 -2.05,-0.429 -0.793,0 -1.473,0.155 -2.037,0.467 -0.566,0.313 -1.026,0.726 -1.381,1.242 -0.354,0.514 -0.615,1.105 -0.783,1.771 -0.169,0.666 -0.254,1.354 -0.254,2.063 0,0.809 0.097,1.556 0.291,2.24 0.195,0.683 0.477,1.27 0.848,1.759 0.371,0.489 0.836,0.869 1.392,1.139 0.557,0.27 1.198,0.405 1.924,0.405 0.793,0 1.472,-0.156 2.037,-0.469 0.565,-0.312 1.026,-0.729 1.38,-1.252 0.354,-0.523 0.616,-1.114 0.785,-1.773 0.168,-0.657 0.253,-1.341 0.253,-2.049"
       id="path3966"
       style="fill:#ffffff;fill-opacity:0.98999999"
       inkscape:connector-curvature="0" /><path
       clip-path="url(#SVGID_2_)"
       d="m 242.294,148.245 h -1.519 v -13.111 h 1.519 v 1.975 h 0.051 c 0.387,-0.76 0.944,-1.338 1.671,-1.735 0.725,-0.397 1.518,-0.594 2.379,-0.594 0.607,0 1.122,0.067 1.544,0.202 0.421,0.136 0.78,0.316 1.075,0.545 0.296,0.227 0.541,0.493 0.734,0.797 0.192,0.304 0.357,0.632 0.493,0.986 0.439,-0.859 1.026,-1.497 1.76,-1.91 0.733,-0.414 1.573,-0.62 2.519,-0.62 0.895,0 1.606,0.147 2.139,0.443 0.531,0.294 0.939,0.683 1.228,1.164 0.287,0.481 0.477,1.034 0.569,1.658 0.093,0.624 0.139,1.265 0.139,1.924 v 8.276 h -1.518 v -9.061 c 0,-0.946 -0.199,-1.687 -0.596,-2.228 -0.396,-0.54 -1.135,-0.81 -2.214,-0.81 -0.558,0 -1.093,0.123 -1.608,0.367 -0.515,0.245 -0.967,0.62 -1.354,1.127 -0.168,0.219 -0.309,0.477 -0.418,0.772 -0.109,0.295 -0.198,0.603 -0.266,0.923 -0.067,0.322 -0.114,0.642 -0.14,0.962 -0.024,0.322 -0.037,0.616 -0.037,0.886 v 7.062 h -1.52 v -9.061 c 0,-0.946 -0.197,-1.687 -0.594,-2.228 -0.396,-0.54 -1.135,-0.81 -2.216,-0.81 -0.556,0 -1.093,0.123 -1.606,0.367 -0.515,0.245 -0.966,0.62 -1.354,1.127 -0.169,0.219 -0.308,0.477 -0.417,0.772 -0.11,0.295 -0.198,0.603 -0.267,0.923 -0.067,0.322 -0.114,0.642 -0.139,0.962 -0.025,0.322 -0.038,0.616 -0.038,0.886 v 7.062 z"
       id="path3968"
       style="fill:#ffffff;fill-opacity:0.98999999"
       inkscape:connector-curvature="0" /><path
       clip-path="url(#SVGID_2_)"
       d="m 263.758,153.409 h -1.518 v -18.275 h 1.518 v 2.303 h 0.051 c 0.221,-0.421 0.503,-0.801 0.849,-1.139 0.345,-0.337 0.725,-0.616 1.138,-0.835 0.414,-0.22 0.84,-0.389 1.279,-0.506 0.438,-0.118 0.868,-0.177 1.291,-0.177 1.063,0 1.965,0.177 2.708,0.531 0.742,0.354 1.354,0.84 1.835,1.455 0.48,0.617 0.831,1.347 1.05,2.19 0.22,0.844 0.33,1.746 0.33,2.708 0,0.911 -0.118,1.789 -0.354,2.632 -0.238,0.845 -0.596,1.582 -1.076,2.215 -0.481,0.633 -1.089,1.139 -1.822,1.519 -0.734,0.38 -1.6,0.569 -2.594,0.569 -0.93,0 -1.819,-0.207 -2.671,-0.62 -0.853,-0.413 -1.523,-1.025 -2.013,-1.835 v 7.265 z m 0,-11.669 c 0,0.743 0.102,1.447 0.304,2.113 0.203,0.667 0.494,1.25 0.874,1.747 0.379,0.497 0.844,0.894 1.393,1.19 0.548,0.295 1.168,0.443 1.859,0.443 0.775,0 1.455,-0.156 2.037,-0.469 0.582,-0.312 1.059,-0.737 1.43,-1.278 0.372,-0.54 0.642,-1.168 0.811,-1.886 0.169,-0.717 0.236,-1.488 0.203,-2.315 0,-0.827 -0.114,-1.558 -0.342,-2.19 -0.228,-0.633 -0.544,-1.169 -0.95,-1.607 -0.404,-0.439 -0.877,-0.772 -1.417,-1 -0.539,-0.228 -1.131,-0.342 -1.771,-0.342 -0.708,0 -1.342,0.144 -1.897,0.43 -0.558,0.288 -1.022,0.68 -1.393,1.177 -0.372,0.499 -0.654,1.089 -0.848,1.773 -0.197,0.682 -0.293,1.421 -0.293,2.214"
       id="path3970"
       style="fill:#ffffff;fill-opacity:0.98999999"
       inkscape:connector-curvature="0" /><path
       clip-path="url(#SVGID_2_)"
       d="m 278.464,142.044 c 0,0.708 0.093,1.379 0.278,2.012 0.186,0.633 0.459,1.181 0.823,1.645 0.362,0.464 0.822,0.835 1.379,1.113 0.557,0.279 1.197,0.419 1.924,0.419 0.996,0 1.848,-0.262 2.557,-0.786 0.708,-0.523 1.181,-1.265 1.417,-2.227 h 1.697 c -0.187,0.625 -0.432,1.203 -0.735,1.734 -0.304,0.532 -0.683,0.996 -1.139,1.393 -0.456,0.396 -0.996,0.704 -1.62,0.924 -0.625,0.218 -1.35,0.328 -2.177,0.328 -1.047,0 -1.948,-0.177 -2.709,-0.531 -0.759,-0.354 -1.383,-0.84 -1.872,-1.456 -0.49,-0.615 -0.853,-1.342 -1.089,-2.177 -0.236,-0.835 -0.354,-1.733 -0.354,-2.695 0,-0.962 0.14,-1.864 0.418,-2.709 0.278,-0.843 0.675,-1.582 1.189,-2.214 0.515,-0.632 1.143,-1.131 1.886,-1.494 0.742,-0.362 1.586,-0.544 2.531,-0.544 1.806,0 3.223,0.621 4.253,1.861 1.028,1.24 1.534,3.041 1.518,5.404 z m 8.555,-1.266 c 0,-0.641 -0.089,-1.244 -0.266,-1.81 -0.177,-0.565 -0.438,-1.054 -0.784,-1.468 -0.346,-0.413 -0.78,-0.742 -1.304,-0.987 -0.522,-0.244 -1.122,-0.367 -1.797,-0.367 -0.675,0 -1.27,0.127 -1.785,0.38 -0.515,0.253 -0.952,0.59 -1.316,1.012 -0.362,0.422 -0.653,0.911 -0.872,1.469 -0.22,0.556 -0.363,1.147 -0.431,1.771 z"
       id="path3972"
       style="fill:#ffffff;fill-opacity:0.98999999"
       inkscape:connector-curvature="0" /><path
       clip-path="url(#SVGID_2_)"
       d="m 293.119,148.245 h -1.521 v -13.111 h 1.521 v 1.822 c 0.607,-0.641 1.235,-1.164 1.886,-1.569 0.648,-0.405 1.429,-0.607 2.341,-0.607 0.811,0 1.561,0.139 2.252,0.417 0.692,0.278 1.274,0.764 1.747,1.455 0.32,0.473 0.511,0.958 0.569,1.456 0.059,0.498 0.089,1.017 0.089,1.557 v 8.58 h -1.519 v -8.556 c 0,-1.18 -0.262,-2.066 -0.784,-2.657 -0.523,-0.59 -1.394,-0.886 -2.607,-0.886 -0.472,0 -0.902,0.073 -1.291,0.216 -0.389,0.143 -0.738,0.333 -1.051,0.57 -0.312,0.235 -0.577,0.505 -0.797,0.809 -0.22,0.304 -0.389,0.624 -0.506,0.962 -0.152,0.422 -0.245,0.827 -0.279,1.214 -0.033,0.39 -0.05,0.811 -0.05,1.266 z"
       id="path3974"
       style="fill:#ffffff;fill-opacity:0.98999999"
       inkscape:connector-curvature="0" /><path
       clip-path="url(#SVGID_2_)"
       d="m 306.56,144.145 c 0.235,1.131 0.661,1.928 1.278,2.392 0.615,0.464 1.497,0.696 2.645,0.696 0.557,0 1.038,-0.067 1.442,-0.203 0.406,-0.135 0.737,-0.316 0.999,-0.544 0.262,-0.228 0.461,-0.485 0.596,-0.773 0.135,-0.286 0.203,-0.589 0.203,-0.91 0,-0.641 -0.207,-1.118 -0.62,-1.43 -0.414,-0.312 -0.934,-0.558 -1.558,-0.735 -0.624,-0.177 -1.3,-0.328 -2.024,-0.455 -0.727,-0.127 -1.401,-0.316 -2.025,-0.57 -0.624,-0.253 -1.143,-0.615 -1.556,-1.088 -0.414,-0.472 -0.621,-1.139 -0.621,-1.999 0,-1.097 0.4,-1.995 1.203,-2.696 0.801,-0.7 1.936,-1.05 3.403,-1.05 1.417,0 2.57,0.316 3.456,0.948 0.886,0.634 1.421,1.693 1.606,3.177 h -1.544 c -0.135,-1.012 -0.52,-1.725 -1.151,-2.138 -0.633,-0.414 -1.43,-0.621 -2.392,-0.621 -0.962,0 -1.695,0.207 -2.202,0.621 -0.507,0.413 -0.76,0.958 -0.76,1.632 0,0.591 0.207,1.042 0.62,1.354 0.414,0.312 0.932,0.566 1.557,0.76 0.624,0.194 1.299,0.366 2.025,0.519 0.725,0.151 1.4,0.366 2.024,0.646 0.624,0.279 1.144,0.655 1.557,1.126 0.414,0.473 0.621,1.131 0.621,1.974 0,0.624 -0.137,1.178 -0.406,1.659 -0.27,0.48 -0.642,0.881 -1.113,1.202 -0.473,0.321 -1.034,0.561 -1.683,0.721 -0.65,0.16 -1.364,0.241 -2.14,0.241 -0.776,0 -1.464,-0.115 -2.063,-0.343 -0.6,-0.227 -1.108,-0.543 -1.531,-0.948 -0.423,-0.406 -0.751,-0.877 -0.987,-1.418 -0.236,-0.54 -0.371,-1.122 -0.405,-1.746 h 1.546 z"
       id="path3976"
       style="fill:#ffffff;fill-opacity:0.98999999"
       inkscape:connector-curvature="0" /><path
       clip-path="url(#SVGID_2_)"
       d="m 324.354,140.601 c 0.286,-0.034 0.628,-0.085 1.024,-0.152 0.396,-0.068 0.721,-0.16 0.975,-0.279 0.253,-0.117 0.408,-0.316 0.469,-0.594 0.059,-0.279 0.088,-0.535 0.088,-0.773 0,-0.775 -0.249,-1.413 -0.746,-1.91 -0.499,-0.497 -1.338,-0.747 -2.52,-0.747 -0.523,0 -1.004,0.047 -1.441,0.139 -0.44,0.093 -0.823,0.254 -1.153,0.481 -0.328,0.228 -0.598,0.532 -0.81,0.912 -0.211,0.379 -0.35,0.856 -0.418,1.43 h -1.544 c 0.051,-0.776 0.229,-1.439 0.532,-1.987 0.304,-0.548 0.695,-0.996 1.177,-1.343 0.48,-0.344 1.038,-0.598 1.671,-0.758 0.633,-0.16 1.304,-0.241 2.012,-0.241 0.658,0 1.278,0.072 1.86,0.215 0.583,0.144 1.089,0.372 1.52,0.684 0.43,0.312 0.767,0.73 1.012,1.253 0.245,0.523 0.367,1.164 0.367,1.923 v 7.138 c 0,0.591 0.104,0.967 0.316,1.126 0.211,0.161 0.637,0.123 1.278,-0.113 v 1.189 c -0.118,0.034 -0.291,0.085 -0.519,0.152 -0.228,0.068 -0.452,0.102 -0.671,0.102 -0.237,0 -0.464,-0.026 -0.684,-0.077 -0.253,-0.033 -0.455,-0.114 -0.607,-0.24 -0.151,-0.126 -0.274,-0.279 -0.367,-0.456 -0.093,-0.177 -0.156,-0.371 -0.19,-0.582 -0.034,-0.211 -0.05,-0.434 -0.05,-0.67 -0.642,0.708 -1.375,1.248 -2.202,1.619 -0.827,0.372 -1.722,0.557 -2.684,0.557 -0.573,0 -1.125,-0.076 -1.658,-0.228 -0.531,-0.152 -0.999,-0.388 -1.404,-0.708 -0.405,-0.321 -0.726,-0.713 -0.961,-1.178 -0.237,-0.463 -0.355,-1.016 -0.355,-1.657 0,-2.227 1.527,-3.543 4.582,-3.949 z m 2.555,0.759 c -0.642,0.271 -1.291,0.448 -1.949,0.531 -0.658,0.086 -1.316,0.153 -1.975,0.203 -1.164,0.084 -2.071,0.346 -2.72,0.785 -0.65,0.439 -0.976,1.105 -0.976,1.999 0,0.406 0.08,0.756 0.241,1.05 0.159,0.296 0.371,0.541 0.632,0.735 0.262,0.195 0.565,0.338 0.912,0.43 0.346,0.093 0.696,0.14 1.05,0.14 0.608,0 1.198,-0.077 1.771,-0.228 0.574,-0.153 1.085,-0.384 1.533,-0.696 0.445,-0.312 0.804,-0.709 1.075,-1.19 0.269,-0.481 0.404,-1.051 0.404,-1.709 v -2.05 z"
       id="path3978"
       style="fill:#ffffff;fill-opacity:0.98999999"
       inkscape:connector-curvature="0" /><path
       clip-path="url(#SVGID_2_)"
       d="m 337.008,148.295 c -0.186,0.034 -0.43,0.093 -0.733,0.177 -0.304,0.085 -0.642,0.127 -1.013,0.127 -0.76,0 -1.338,-0.189 -1.734,-0.57 -0.396,-0.38 -0.594,-1.058 -0.594,-2.037 v -9.593 h -1.848 v -1.265 h 1.848 v -3.645 h 1.518 v 3.645 h 2.456 v 1.265 h -2.456 v 8.986 c 0,0.32 0.009,0.599 0.026,0.835 0.017,0.237 0.066,0.43 0.151,0.582 0.084,0.152 0.215,0.262 0.393,0.329 0.177,0.067 0.426,0.102 0.746,0.102 0.203,0 0.409,-0.017 0.62,-0.051 0.211,-0.034 0.418,-0.076 0.62,-0.127 z"
       id="path3980"
       style="fill:#ffffff;fill-opacity:0.98999999"
       inkscape:connector-curvature="0" /><path
       clip-path="url(#SVGID_2_)"
       d="m 339.59,130.021 h 1.671 v 2.253 h -1.671 z m 0.076,5.113 h 1.518 v 13.111 h -1.518 z"
       id="path3982"
       style="fill:#ffffff;fill-opacity:0.98999999"
       inkscape:connector-curvature="0" /><path
       clip-path="url(#SVGID_2_)"
       d="m 350.271,148.6 c -0.843,-0.017 -1.632,-0.169 -2.366,-0.456 -0.733,-0.287 -1.375,-0.717 -1.924,-1.291 -0.548,-0.573 -0.982,-1.291 -1.303,-2.152 -0.321,-0.86 -0.481,-1.864 -0.481,-3.011 0,-0.962 0.127,-1.861 0.38,-2.696 0.254,-0.836 0.633,-1.565 1.139,-2.189 0.507,-0.624 1.139,-1.118 1.899,-1.481 0.759,-0.363 1.645,-0.544 2.656,-0.544 1.029,0 1.925,0.181 2.685,0.544 0.758,0.363 1.392,0.852 1.897,1.468 0.506,0.616 0.881,1.346 1.126,2.189 0.244,0.845 0.367,1.747 0.367,2.709 0,1.046 -0.144,1.991 -0.43,2.834 -0.287,0.845 -0.696,1.57 -1.228,2.177 -0.531,0.608 -1.173,1.075 -1.924,1.405 -0.75,0.329 -1.581,0.494 -2.493,0.494 m 4.456,-6.911 c 0,-0.777 -0.086,-1.502 -0.254,-2.177 -0.169,-0.675 -0.43,-1.261 -0.784,-1.76 -0.354,-0.497 -0.811,-0.889 -1.367,-1.177 -0.557,-0.286 -1.241,-0.429 -2.051,-0.429 -0.793,0 -1.473,0.155 -2.037,0.467 -0.565,0.313 -1.025,0.726 -1.38,1.242 -0.354,0.514 -0.615,1.105 -0.783,1.771 -0.169,0.666 -0.254,1.354 -0.254,2.063 0,0.809 0.098,1.556 0.291,2.24 0.194,0.683 0.477,1.27 0.848,1.759 0.371,0.489 0.836,0.869 1.392,1.139 0.558,0.27 1.198,0.405 1.924,0.405 0.794,0 1.473,-0.156 2.038,-0.469 0.565,-0.312 1.025,-0.729 1.38,-1.252 0.354,-0.523 0.615,-1.114 0.784,-1.773 0.167,-0.657 0.253,-1.341 0.253,-2.049"
       id="path3984"
       style="fill:#ffffff;fill-opacity:0.98999999"
       inkscape:connector-curvature="0" /><path
       clip-path="url(#SVGID_2_)"
       d="m 360.648,148.245 h -1.521 v -13.111 h 1.521 v 1.822 c 0.607,-0.641 1.236,-1.164 1.886,-1.569 0.648,-0.405 1.429,-0.607 2.341,-0.607 0.811,0 1.561,0.139 2.252,0.417 0.692,0.278 1.274,0.764 1.747,1.455 0.32,0.473 0.511,0.958 0.57,1.456 0.058,0.498 0.088,1.017 0.088,1.557 v 8.58 h -1.518 v -8.556 c 0,-1.18 -0.263,-2.066 -0.785,-2.657 -0.523,-0.59 -1.394,-0.886 -2.607,-0.886 -0.472,0 -0.902,0.073 -1.291,0.216 -0.388,0.143 -0.738,0.333 -1.05,0.57 -0.313,0.235 -0.578,0.505 -0.798,0.809 -0.219,0.304 -0.388,0.624 -0.506,0.962 -0.152,0.422 -0.245,0.827 -0.278,1.214 -0.034,0.39 -0.051,0.811 -0.051,1.266 z"
       id="path3986"
       style="fill:#ffffff;fill-opacity:0.98999999"
       inkscape:connector-curvature="0" /><path
       clip-path="url(#SVGID_2_)"
       d="m 381.176,142.803 c 0.066,0.811 0.248,1.498 0.544,2.063 0.295,0.565 0.675,1.024 1.139,1.379 0.465,0.355 1,0.613 1.607,0.772 0.607,0.161 1.257,0.241 1.949,0.241 0.81,0 1.51,-0.101 2.101,-0.304 0.591,-0.202 1.071,-0.476 1.443,-0.822 0.37,-0.347 0.645,-0.747 0.82,-1.203 0.179,-0.456 0.268,-0.937 0.268,-1.442 0,-0.709 -0.16,-1.283 -0.481,-1.721 -0.32,-0.439 -0.737,-0.798 -1.252,-1.077 -0.516,-0.278 -1.105,-0.501 -1.771,-0.67 -0.668,-0.169 -1.351,-0.334 -2.051,-0.493 -0.7,-0.161 -1.385,-0.35 -2.051,-0.57 -0.666,-0.219 -1.257,-0.515 -1.771,-0.887 -0.515,-0.37 -0.931,-0.847 -1.252,-1.429 -0.321,-0.582 -0.481,-1.32 -0.481,-2.214 0,-0.624 0.13,-1.232 0.392,-1.824 0.262,-0.59 0.649,-1.113 1.165,-1.569 0.515,-0.455 1.159,-0.818 1.936,-1.087 0.776,-0.27 1.671,-0.406 2.684,-0.406 1.028,0 1.928,0.144 2.695,0.43 0.768,0.288 1.404,0.68 1.911,1.177 0.506,0.498 0.886,1.075 1.14,1.734 0.253,0.658 0.379,1.358 0.379,2.101 h -1.646 c 0,-0.691 -0.122,-1.291 -0.366,-1.798 -0.245,-0.505 -0.579,-0.919 -1,-1.239 -0.423,-0.321 -0.902,-0.558 -1.443,-0.709 -0.539,-0.153 -1.097,-0.228 -1.67,-0.228 -0.878,0 -1.616,0.123 -2.215,0.367 -0.6,0.245 -1.076,0.561 -1.431,0.949 -0.353,0.389 -0.599,0.819 -0.734,1.291 -0.135,0.473 -0.159,0.945 -0.075,1.417 0.102,0.591 0.337,1.064 0.709,1.418 0.371,0.354 0.826,0.645 1.366,0.873 0.54,0.229 1.136,0.414 1.785,0.557 0.649,0.144 1.312,0.296 1.987,0.455 0.674,0.161 1.328,0.351 1.961,0.57 0.633,0.22 1.193,0.515 1.684,0.886 0.489,0.371 0.881,0.848 1.177,1.43 0.295,0.582 0.443,1.312 0.443,2.189 0,1.688 -0.583,2.996 -1.747,3.923 -1.165,0.928 -2.801,1.393 -4.91,1.393 -0.945,0 -1.822,-0.123 -2.633,-0.367 -0.81,-0.245 -1.51,-0.616 -2.101,-1.114 -0.591,-0.498 -1.051,-1.113 -1.38,-1.848 -0.328,-0.734 -0.493,-1.598 -0.493,-2.594 z"
       id="path3988"
       style="fill:#ffffff;fill-opacity:0.98999999"
       inkscape:connector-curvature="0" /><path
       clip-path="url(#SVGID_2_)"
       d="m 395.603,151.789 c 0.203,0.033 0.409,0.067 0.62,0.101 0.211,0.034 0.427,0.05 0.646,0.05 0.421,0 0.768,-0.134 1.038,-0.403 0.27,-0.271 0.494,-0.596 0.671,-0.974 0.177,-0.379 0.324,-0.775 0.442,-1.188 0.118,-0.413 0.254,-0.762 0.405,-1.048 l -5.088,-13.193 h 1.696 l 4.202,11.263 4.201,-11.263 h 1.645 l -4.885,12.934 c -0.303,0.827 -0.595,1.57 -0.872,2.228 -0.279,0.658 -0.576,1.218 -0.887,1.682 -0.313,0.464 -0.658,0.818 -1.037,1.063 -0.381,0.245 -0.831,0.368 -1.354,0.368 -0.271,0 -0.527,-0.017 -0.772,-0.052 -0.244,-0.033 -0.468,-0.075 -0.671,-0.126 z"
       id="path3990"
       style="fill:#ffffff;fill-opacity:0.98999999"
       inkscape:connector-curvature="0" /><path
       clip-path="url(#SVGID_2_)"
       d="m 409.246,144.145 c 0.235,1.131 0.661,1.928 1.278,2.392 0.615,0.464 1.497,0.696 2.645,0.696 0.558,0 1.038,-0.067 1.443,-0.203 0.405,-0.135 0.737,-0.316 0.999,-0.544 0.261,-0.228 0.46,-0.485 0.595,-0.773 0.135,-0.286 0.203,-0.589 0.203,-0.91 0,-0.641 -0.207,-1.118 -0.62,-1.43 -0.414,-0.312 -0.933,-0.558 -1.558,-0.735 -0.624,-0.177 -1.3,-0.328 -2.024,-0.455 -0.727,-0.127 -1.4,-0.316 -2.024,-0.57 -0.625,-0.253 -1.144,-0.615 -1.557,-1.088 -0.414,-0.472 -0.621,-1.139 -0.621,-1.999 0,-1.097 0.4,-1.995 1.203,-2.696 0.801,-0.7 1.937,-1.05 3.403,-1.05 1.418,0 2.57,0.316 3.456,0.948 0.886,0.634 1.421,1.693 1.606,3.177 h -1.544 c -0.135,-1.012 -0.519,-1.725 -1.151,-2.138 -0.633,-0.414 -1.43,-0.621 -2.392,-0.621 -0.962,0 -1.696,0.207 -2.202,0.621 -0.507,0.413 -0.76,0.958 -0.76,1.632 0,0.591 0.207,1.042 0.62,1.354 0.414,0.312 0.932,0.566 1.558,0.76 0.624,0.194 1.297,0.366 2.024,0.519 0.725,0.151 1.4,0.366 2.024,0.646 0.623,0.279 1.144,0.655 1.557,1.126 0.414,0.473 0.621,1.131 0.621,1.974 0,0.624 -0.137,1.178 -0.406,1.659 -0.27,0.48 -0.642,0.881 -1.113,1.202 -0.473,0.321 -1.035,0.561 -1.683,0.721 -0.649,0.16 -1.363,0.241 -2.139,0.241 -0.777,0 -1.465,-0.115 -2.063,-0.343 -0.6,-0.227 -1.109,-0.543 -1.531,-0.948 -0.423,-0.406 -0.751,-0.877 -0.986,-1.418 -0.237,-0.54 -0.372,-1.122 -0.406,-1.746 h 1.545 z"
       id="path3992"
       style="fill:#ffffff;fill-opacity:0.98999999"
       inkscape:connector-curvature="0" /><path
       clip-path="url(#SVGID_2_)"
       d="m 425.622,148.295 c -0.186,0.034 -0.43,0.093 -0.733,0.177 -0.304,0.085 -0.642,0.127 -1.013,0.127 -0.76,0 -1.338,-0.189 -1.733,-0.57 -0.397,-0.38 -0.596,-1.058 -0.596,-2.037 v -9.593 h -1.848 v -1.265 h 1.848 v -3.645 h 1.519 v 3.645 h 2.455 v 1.265 h -2.455 v 8.986 c 0,0.32 0.008,0.599 0.025,0.835 0.017,0.237 0.067,0.43 0.151,0.582 0.085,0.152 0.216,0.262 0.393,0.329 0.178,0.067 0.427,0.102 0.747,0.102 0.203,0 0.409,-0.017 0.62,-0.051 0.211,-0.034 0.418,-0.076 0.62,-0.127 z"
       id="path3994"
       style="fill:#ffffff;fill-opacity:0.98999999"
       inkscape:connector-curvature="0" /><path
       clip-path="url(#SVGID_2_)"
       d="m 428.988,142.044 c 0,0.708 0.093,1.379 0.278,2.012 0.186,0.633 0.459,1.181 0.823,1.645 0.362,0.464 0.822,0.835 1.379,1.113 0.557,0.279 1.197,0.419 1.924,0.419 0.996,0 1.848,-0.262 2.556,-0.786 0.709,-0.523 1.182,-1.265 1.418,-2.227 h 1.696 c -0.186,0.625 -0.431,1.203 -0.734,1.734 -0.304,0.532 -0.684,0.996 -1.139,1.393 -0.456,0.396 -0.997,0.704 -1.62,0.924 -0.625,0.218 -1.35,0.328 -2.177,0.328 -1.047,0 -1.949,-0.177 -2.709,-0.531 -0.759,-0.354 -1.383,-0.84 -1.872,-1.456 -0.49,-0.615 -0.853,-1.342 -1.089,-2.177 -0.236,-0.835 -0.354,-1.733 -0.354,-2.695 0,-0.962 0.14,-1.864 0.417,-2.709 0.279,-0.843 0.676,-1.582 1.19,-2.214 0.515,-0.632 1.143,-1.131 1.886,-1.494 0.742,-0.362 1.586,-0.544 2.531,-0.544 1.806,0 3.223,0.621 4.252,1.861 1.029,1.24 1.535,3.041 1.519,5.404 z m 8.555,-1.266 c 0,-0.641 -0.089,-1.244 -0.266,-1.81 -0.177,-0.565 -0.438,-1.054 -0.784,-1.468 -0.347,-0.413 -0.78,-0.742 -1.304,-0.987 -0.523,-0.244 -1.122,-0.367 -1.797,-0.367 -0.675,0 -1.271,0.127 -1.785,0.38 -0.514,0.253 -0.952,0.59 -1.316,1.012 -0.362,0.422 -0.653,0.911 -0.872,1.469 -0.221,0.556 -0.363,1.147 -0.431,1.771 z"
       id="path3996"
       style="fill:#ffffff;fill-opacity:0.98999999"
       inkscape:connector-curvature="0" /><path
       clip-path="url(#SVGID_2_)"
       d="m 443.44,148.245 h -1.519 v -13.111 h 1.519 v 1.975 h 0.052 c 0.386,-0.76 0.944,-1.338 1.67,-1.735 0.726,-0.397 1.519,-0.594 2.379,-0.594 0.608,0 1.122,0.067 1.544,0.202 0.421,0.136 0.781,0.316 1.075,0.545 0.296,0.227 0.541,0.493 0.734,0.797 0.193,0.304 0.357,0.632 0.493,0.986 0.439,-0.859 1.026,-1.497 1.76,-1.91 0.733,-0.414 1.573,-0.62 2.519,-0.62 0.895,0 1.607,0.147 2.139,0.443 0.531,0.294 0.94,0.683 1.228,1.164 0.288,0.481 0.477,1.034 0.569,1.658 0.093,0.624 0.14,1.265 0.14,1.924 v 8.276 h -1.519 v -9.061 c 0,-0.946 -0.199,-1.687 -0.596,-2.228 -0.396,-0.54 -1.135,-0.81 -2.214,-0.81 -0.558,0 -1.093,0.123 -1.607,0.367 -0.516,0.245 -0.968,0.62 -1.354,1.127 -0.168,0.219 -0.309,0.477 -0.417,0.772 -0.11,0.295 -0.199,0.603 -0.266,0.923 -0.068,0.322 -0.114,0.642 -0.141,0.962 -0.024,0.322 -0.037,0.616 -0.037,0.886 v 7.062 h -1.519 v -9.061 c 0,-0.946 -0.198,-1.687 -0.595,-2.228 -0.396,-0.54 -1.135,-0.81 -2.215,-0.81 -0.557,0 -1.094,0.123 -1.607,0.367 -0.515,0.245 -0.966,0.62 -1.354,1.127 -0.169,0.219 -0.309,0.477 -0.418,0.772 -0.109,0.295 -0.198,0.603 -0.267,0.923 -0.066,0.322 -0.114,0.642 -0.139,0.962 -0.024,0.322 -0.038,0.616 -0.038,0.886 v 7.062 z"
       id="path3998"
       style="fill:#ffffff;fill-opacity:0.98999999"
       inkscape:connector-curvature="0" /><path
       clip-path="url(#SVGID_2_)"
       d="m 24.067,148.306 c -7.103,0 -8.788,-4.394 -8.788,-9.449 0,-5.056 1.716,-9.48 8.788,-9.48 7.163,0 8.817,4.424 8.817,9.509 0,5.026 -1.654,9.42 -8.817,9.42 m 0,-16.282 c -5.537,0 -5.537,0 -5.537,6.832 0,3.792 0.963,6.831 5.537,6.831 5.598,0 5.598,0 5.598,-6.802 0,-3.821 -0.933,-6.861 -5.598,-6.861"
       id="path4000"
       style="fill:#ffffff;fill-opacity:0.98999999"
       inkscape:connector-curvature="0" /><path
       clip-path="url(#SVGID_2_)"
       d="m 56.781,145.567 c -0.753,2.528 -0.753,2.528 -2.769,2.528 h -1.806 l -4.514,-15.017 -3.731,12.489 c -0.753,2.528 -0.662,2.528 -3.25,2.528 h -1.325 l -5.627,-18.538 c 3.34,0 3.34,-0.03 4.032,2.498 l 3.552,12.639 4.544,-15.137 c 3.791,0 3.761,0 4.514,2.498 l 3.792,12.639 3.55,-12.639 c 0.663,-2.498 0.723,-2.498 3.883,-2.498 z"
       id="path4002"
       style="fill:#ffffff;fill-opacity:0.98999999"
       inkscape:connector-curvature="0" /><path
       clip-path="url(#SVGID_2_)"
       d="m 70.748,148.155 c -6.892,0 -8.517,-4.243 -8.517,-9.299 0,-5.055 1.655,-9.299 8.517,-9.299 h 5.658 c 0,2.648 0,2.648 -2.469,2.648 h -3.189 c -5.266,0 -5.266,-0.18 -5.266,6.651 0,3.792 0.903,6.651 5.266,6.651 h 3.009 c 2.649,0 2.649,0 2.649,2.648 z"
       id="path4004"
       style="fill:#ffffff;fill-opacity:0.98999999"
       inkscape:connector-curvature="0" /><path
       clip-path="url(#SVGID_2_)"
       d="m 86.309,141.654 h -3.732 v 6.441 c -3.16,0 -3.16,0 -3.16,-2.649 v -13.241 c 0,-2.588 0,-2.588 3.16,-2.588 h 3.521 c 7.072,0 7.674,3.431 7.674,5.989 -0.001,2.528 -0.361,6.048 -7.463,6.048 m -0.121,-9.449 h -3.611 v 6.922 h 3.701 c 4.243,0 4.243,0 4.243,-3.521 0,-1.566 -0.421,-3.401 -4.333,-3.401"
       id="path4006"
       style="fill:#ffffff;fill-opacity:0.98999999"
       inkscape:connector-curvature="0" /></g></svg>